<svg xmlns="http://www.w3.org/2000/svg" viewBox="0 0 129.46 132.02">
  <title>60th_icon</title>
  <g id="Layer_2" data-name="Layer 2">
    <g id="logo">
      <g>
        <path d="M57.27,98.56a24.23,24.23,0,0,0-8.21-18.27,22.86,22.86,0,0,0-15.12-5.73A23.24,23.24,0,0,0,13.44,87.1h0q0,.74,0,1.49c0,17,12.85,30.6,28.83,30.6a26.64,26.64,0,0,0,4.17-.33A24.15,24.15,0,0,0,57.27,98.56Z" fill="#91cad1"/>
        <path d="M70.69,89a32.13,32.13,0,0,0-8.91-22.54L49.06,80.29a24.41,24.41,0,0,1-2.66,38.56C60.06,116.69,70.69,104.07,70.69,89Z" fill="#e4459b"/>
        <path d="M33.94,74.56a22.86,22.86,0,0,1,15.12,5.73L61.78,66.41h0A27.43,27.43,0,0,0,42,58C26.72,58,14.17,71,13.44,87.1A23.24,23.24,0,0,1,33.94,74.56Z" fill="#d71b81"/>
        <path d="M88.36,67l-.23-.07a27.29,27.29,0,0,0-7.94-1.18c-.68,0-1.34,0-2,.07.22.36.42.73.63,1.1l.21.39.38.72.25.49.3.62.27.56.12.27q.35.76.67,1.55l.12.3.33.84.1.27c.11.3.22.6.32.91.28.8.53,1.61.76,2.44A44,44,0,0,1,83.85,82v.05c.06.45.12.91.16,1.37l0,.14c0,.43.08.86.11,1.29,0,.08,0,.15,0,.23,0,.41,0,.83.06,1.24,0,.1,0,.19,0,.29q0,.77,0,1.55a43.84,43.84,0,0,1-10.91,29,28.49,28.49,0,0,0,9.48,1.59c8.58,0,16.28-4,22-10.61a29.34,29.34,0,0,0,3.34-13.66A28.73,28.73,0,0,0,88.36,67Z" fill="#91cad1"/>
        <path d="M115.22,78.19c0-11.82-3.61-22.15-9.61-29.44l-.14-.16c-.07.07-17.48,18.26-17.55,18.25l.21.06.23.07A28.73,28.73,0,0,1,108.2,94.54a29.34,29.34,0,0,1-3.34,13.66C111.26,100.83,115.22,90.19,115.22,78.19Z" fill="#e4459b"/>
        <path d="M101.33,44.41a28.39,28.39,0,0,0-18.49-6.83c-9.3,0-17.45,4.45-23.22,11.82A39.87,39.87,0,0,1,78.18,65.8c.66,0,1.33-.07,2-.07a27.29,27.29,0,0,1,7.73,1.11h0c.07,0,17.49-18.17,17.55-18.25h0A33.27,33.27,0,0,0,101.33,44.41Z" fill="#d71b81"/>
        <path d="M83,24.37A42.56,42.56,0,0,0,61.74,30,48,48,0,0,0,45,46.46a34.63,34.63,0,0,0-11.2,1.89l28-40,.31-.45L51.78,0,10.1,59.68C3.49,68.94,0,78.95,0,88.77,0,112,19.28,131.45,42.41,131.45A40.38,40.38,0,0,0,62,126.35,43.35,43.35,0,0,0,83,132c1,0,2,0,2.94-.1l1.09-.09c24.16-2.29,42.39-25,42.39-53.83C129.46,47.53,109.37,24.37,83,24.37ZM68.67,100.09a30.75,30.75,0,0,1-5.28,9q-.49.58-1,1.13A29.42,29.42,0,0,1,59,113.34a27.93,27.93,0,0,1-8,4.37,26.65,26.65,0,0,1-8.72,1.47,27.5,27.5,0,0,1-12.43-3,28.5,28.5,0,0,1-5.64-3.76A31.22,31.22,0,0,1,13.4,88.58q0-.75,0-1.49c.69-15.23,11.93-27.66,26.09-29C40.36,58,41.2,58,42,58a27.09,27.09,0,0,1,11.5,2.56,28.33,28.33,0,0,1,8.23,5.87A30.14,30.14,0,0,1,65,70.33,32.35,32.35,0,0,1,70.54,85.8c.1,1,.15,2.09.15,3.16A31.5,31.5,0,0,1,68.67,100.09Zm36.19,8.12c-5.74,6.62-13.44,10.61-22,10.61a28.49,28.49,0,0,1-9.48-1.59,43.84,43.84,0,0,0,10.91-29,44.45,44.45,0,0,0-1.62-12c-.23-.82-.49-1.63-.76-2.44a42.76,42.76,0,0,0-3.7-8A39.87,39.87,0,0,0,59.62,49.4C65.39,42,73.54,37.57,82.84,37.57a28.39,28.39,0,0,1,18.49,6.83,33.27,33.27,0,0,1,4.15,4.19l.14.16c6,7.29,9.61,17.62,9.61,29.44C115.22,90.19,111.26,100.83,104.86,108.21Z" fill="#fbee23"/>
      </g>
    </g>
  </g>
</svg>
