<svg xmlns="http://www.w3.org/2000/svg" viewBox="0 0 181.03 266.85">
  <title>barbie_original</title>
  <g id="Layer_2" data-name="Layer 2">
    <g id="logo">
      <g>
        <path d="M113.38,121.91A53.86,53.86,0,0,0,121,111.8c.17-.3.37-.48.73-.33a27.63,27.63,0,0,1,1.06,6.64,24.07,24.07,0,0,1-1.11,6.64c-1,3.08-.47,4.72,2.23,6.61a35.41,35.41,0,0,1,11.38,12.46,33.89,33.89,0,0,1,2.53,7.86,41,41,0,0,1,.83,12.66,31.92,31.92,0,0,1-2.11,8.45c-.71.54-1.4.16-2-.12-2.79-1.27-5.64-2.32-8.2-4.16a52.44,52.44,0,0,1-6.06-4.42,20.46,20.46,0,0,1-5.27-8,43.63,43.63,0,0,1-1.49-6.28,83.74,83.74,0,0,1-1.38-20.08c.13-2.63-.07-5.37,1.26-7.83" fill="#e8bb34"/>
        <path d="M70.62,119.22c.55-.17.82.23,1.15.55,1,1,2.11,2,3.17,3.07a2,2,0,0,1,.34,2.51,7.91,7.91,0,0,0-.3,2.59c.1,4.94,2.89,2.85,2.55,7.76,0,.25-.72,5.26-.82,5.48-2.21,5,.76,16.83-1.92,21.65s-12.55,4.2-17.5,6.37c-.89.39-1.8.75-2.7,1.12a5.29,5.29,0,0,1,1.6-3.41c2.31-2.62,1.81-6.38-1.58-7.87a14.24,14.24,0,0,1-6.11-5c-2.78-4.09-1.41-8,.28-11.93a27.71,27.71,0,0,1,6.92-9.65c1.16-1.06,2.55-1.88,3.8-2.85,2.91-2.25,6.33-3.84,8.75-6.71.94-1.12,2-2.15,2.38-3.67" fill="#e8bb34"/>
        <path d="M180,211.19a67.39,67.39,0,0,0-1.06-8.48c-1.12-4.48-2.39-9-5.44-12.75-1.78-2.17-3.32-4.53-5.84-6a39,39,0,0,0-9.08-3.68,158.47,158.47,0,0,1-15.84-5.34,8.27,8.27,0,0,0-1.44-.78c-1.57-.49-3.17-.91-4.76-1.36a21.84,21.84,0,0,1-7.61-3.13,65.81,65.81,0,0,1-6.65-4.3,22.14,22.14,0,0,1-6.94-9.47,46.71,46.71,0,0,1-2.12-8.78,66.08,66.08,0,0,1-.72-11.15,87.71,87.71,0,0,1,.87-14.05,44.5,44.5,0,0,1-9.61,6.25,23.82,23.82,0,0,1-13.2,2,27.47,27.47,0,0,1-13.35-5.8,16,16,0,0,0-1.37-1.06c-.41-1.59-.92-3.15-1.46-2.81-.57.87.08,6.79.09,7.76.06,4.51-.24,9-.58,13.5-.22,4.69-2.81,14.11-4.32,17.27-2.66,5.54-7.88,8.16-13.62,10.39a2.86,2.86,0,0,0-1.37.94c-8.68,3.53-17.83,5.67-26.51,9.22a55.17,55.17,0,0,0-8.55,4,25.25,25.25,0,0,0-6.4,5c-3.39,4-7.74,9.25-9.09,12.82a60.15,60.15,0,0,0-3,8.82,48.68,48.68,0,0,0-1,10.76c.17,3,.56,6,.55,9,0,7.3,0,18.17,0,25.47a7.25,7.25,0,0,0,.54,2.93c7.43,0,15.6,2.89,23,2.89,2.17,0,6.42.73,8.59.72,2.2.17,1.59-5,3.79-5.06l3.82.06H63.84c7.67,0,38.68-.32,39.43,0h46.17l7.47,0c2.24,0,.81,4.78,3,4.76l.72.24,2.86-1c1.56,0,3.54-.66,6.2-1.19,2.39-.48,5.49-.24,9.33-1.46.25-2.38.46-6,.73-8.17.53-4.25,1-10.65,1.15-14.93a167,167,0,0,0-.93-24.05M39,223.59h0a1,1,0,0,0-.16-.06h0l.2-.09s0,0,0,.07Z" fill="#fadfca"/>
        <path d="M150.78,224.31c3.86.85,7.81,1.27,11.16,3.79,2.84,2.13,3.94,5.06,4.81,8.27,1.64,6,2.23,17.72,2,23.92-1.56,0-3.21,1-4.77,1-.69-.11-1.23-5-1.37-5.56-.41-1.7-.78-3.39-1.05-5.12a107.12,107.12,0,0,0-2.79-13,30.51,30.51,0,0,0-6.87-11.37c-.49-.54-1.3-.91-1.14-1.86" fill="#fbc091"/>
        <path d="M164.24,260.52c-1-.8-1.46-5.7-1.64-6.73-.72-4.35-1.8-10.75-3-15-1.55-5.68-4.88-10.29-8.86-14.49-2.83-2.24-5.47-4.75-8.66-6.51h0a56.12,56.12,0,0,0-27.2-6.45c-3.86.15-7.69-.45-11.53-.58h0c-1.9,0-3.8,0-5.69-.06-2.76-.08-5.51.05-8.28-.23s-5.49-1.24-8.33-1v0c-.14-.06-.23-.18-.37-.25-4.66.23-9.31.47-13.82,1.83a63.83,63.83,0,0,0-8.18,1.6c-2.15.51-4.43.7-6.33,2a35.24,35.24,0,0,0-13,8.42c-.07.17-.52,0-.33.41l-.06.09c-6.54,9.35-9.32,27.29-9.14,38.61,2.2.16,22,3.22,24.46,3.22,0,0,28,.6,35.68.6,5.48,0,13.62,0,19.09,0,7.9,0,14.67.9,22.55.48,9.74-.52,20.79-2,19-2.15,2.49,0,10.41-1.37,13.6-3.82" fill="#fff"/>
        <path d="M81.09,209.47c2.84-.22,5.55.73,8.33,1s5.52.15,8.28.23c1.9.06,3.79,0,5.69.06a6.74,6.74,0,0,1,1.65,2.38,19.74,19.74,0,0,0,8.23,9.46c1.59.93,3.07,2,4.68,3a21.42,21.42,0,0,1,5,3.83c2.18,2.31,4.61,4.38,6.64,6.84,2.94,3.57,4.71,9.94,6.54,14.11a28.78,28.78,0,0,1,1.56,4.66c.15.63.52,1.25.16,1.93H127a9.58,9.58,0,0,1-1.83-2.46,70.38,70.38,0,0,0-8.29-11.2c-3.94-4.06-8.58-7.31-12.67-11.21a34.22,34.22,0,0,0-5.88-4.46A6.78,6.78,0,0,1,95,222.86a21.85,21.85,0,0,0-.66-2.85c-.27-.81-.67-1.57-1.61-1.67s-1.47.61-1.87,1.36c-.62,1.18-1.1,2.43-1.63,3.66-1.41,3.26-3.82,5.83-5.93,8.59-4,5.18-8.38,10-12.77,14.77-2.34,2.56-4.68,7.31-6.64,10.21H47.73c-.21-.75.27-1.28.61-1.83,1.41-2.29,2.54-6.84,3.18-9.46a9.71,9.71,0,0,1,3-4.74,13.31,13.31,0,0,0,1.93-2c2.69-3.86,6.48-6.51,10.1-9.4,4.94-3.95,9.59-8.23,12.51-14a11,11,0,0,0,1.62-5.07,1.06,1.06,0,0,1,.38-1" fill="#fff"/>
        <path d="M149.44,256.92a101.77,101.77,0,0,0-2.94-14.38,49.53,49.53,0,0,0-7-14.84A20.68,20.68,0,0,0,129.07,220c-5.29-1.89-10.37-4.2-14.14-8.62a56.13,56.13,0,0,1,27.2,6.45,21.38,21.38,0,0,1,4.09,6.27,46.27,46.27,0,0,0,3.48,6.67c4.19,6.41,6.16,15.7,7,23.22.11,1,.62,2,.22,3l-7.47,0" fill="#fff"/>
        <path d="M66.89,211a32.83,32.83,0,0,1-6.37,7.46c-4,3.19-7.4,7-11.2,10.34a12.87,12.87,0,0,0-2.57,3.62,65.5,65.5,0,0,0-6.57,19.93,21.34,21.34,0,0,0,.19,4.58l-3.82-.06a.68.68,0,0,1-.16-.26c-.7-4.37-2.32-11-.48-15.29,1.67-3.86,2.4-8,4.54-11.73a59.49,59.49,0,0,1,7.43-10.17c1.47-1.63,2.62-3.57,4.53-4.78s4.18-1.53,6.32-2a63.74,63.74,0,0,1,8.18-1.6" fill="#fff"/>
        <path d="M86.84,256.92c2.48-2.34,4-7.26,6.3-10.09.7-.87,1.05-2.22,1.76-2.22a2,2,0,0,1,1.45.63c2.94,2.74,4.69,8.46,6.91,11.71l-16.43,0" fill="#fff"/>
        <path d="M59.72,265.77a98.33,98.33,0,0,1,6-12c4.41-5,8.94-12,13.22-17.14s8.91-10.09,11.25-16.56a5.87,5.87,0,0,1,.48-1,2.07,2.07,0,0,1,3.94.4,27.69,27.69,0,0,1,.92,3.72,5.33,5.33,0,0,0,2.4,3.6c9,6.47,17.13,16.17,24.94,24,1.73,1.74,6.31,10.59,6.31,15.6-7.9,0-15,.35-22.91.36-.74-.34-4.13-10.88-4.52-11.55-1.09-1.86-2.26-5.81-3.54-7.55a30.85,30.85,0,0,0-2.38-2.38c-.63-.69-1,0-1.54.5-2.57,2.46-4.14,7.84-6.58,10.39-.25.26-3.32,9.32-3.63,9.51H59.72" fill="#0a0a0a"/>
        <path d="M138.83,265.77c-.36-8.23-4.63-22.47-8.18-27.34-3.74-5.14-8.09-9.8-13.73-13a83.18,83.18,0,0,1-7.35-5.05,7.09,7.09,0,0,1-1.33-1.27c-2.05-2.52-3.33-5.49-4.85-8.32,3.85.13,7.67.73,11.54.58a5,5,0,0,1,1.29.82c3.56,3.69,8.12,5.65,12.8,7.38a23.07,23.07,0,0,1,12.12,9.89c4.36,7.13,6.5,17.16,8.37,25.16.17.72,1.83,9,1.14,9.74a41,41,0,0,1-11.81,1.43" fill="#0a0a0a"/>
        <path d="M81.09,209.47c.41,2.17-.55,4-1.46,5.85-3.46,7-9.26,11.79-15.25,16.39A57,57,0,0,0,57.71,238c-3.27,3.48-6.05,9.22-7.29,14C50,253.74,48.83,263,47.91,264.7c-2.45,0-4.91-.71-7.36-.71-.88-1.69-.89-10.48-.59-12.28,1.2-7.28,4.13-16,8.25-22.06,1.87-2.73,4.67-4.73,7.1-7,3.62-3.4,7.68-6.36,10.47-10.58a3.3,3.3,0,0,1,1.12-1c4.51-1.35,9.16-1.59,13.82-1.83.13.07.23.19.37.25Z" fill="#0a0a0a"/>
        <path d="M29.49,262.52c-.19-11.31,3-29.58,9.53-38.93l.06-.09c-.2-.38.26-.24.32-.41a35.23,35.23,0,0,1,13-8.42c-1.33,1.59-2.6,3.24-4,4.77-4.9,5.41-8.79,11.3-10.73,18.54-.65,2.44-1.79,4.79-2.11,7.38a18.22,18.22,0,0,0,.16,5.17c.75,2.06.26,9.88.37,12a58.23,58.23,0,0,1-6.6,0" fill="#161414"/>
        <path d="M150.78,224.31c4,4.2,7.32,8.81,8.86,14.49,1.16,4.24,2.24,10.64,3,15,.17,1,.36,6.65,1.4,7.45-2.24,0-4.69,2.6-6.92,2.62-.55-1.3-.68-9.61-.87-11-1.06-7.59-3.3-16.89-7.66-23.3a27.68,27.68,0,0,1-2.3-4.51,25.74,25.74,0,0,0-3.46-6,2,2,0,0,1-.67-1.34c3.19,1.76,5.83,4.27,8.66,6.51" fill="#161414"/>
        <path d="M74.39,124.57c-.11-.84-.6-3.46-.72-4.3.93.24,2.84,3.48,3.55,4a27.46,27.46,0,0,0,13.35,5.8,23.83,23.83,0,0,0,13.2-2,44.48,44.48,0,0,0,9.61-6.25,87.89,87.89,0,0,0-.87,14.05,66.07,66.07,0,0,0,.72,11.15,46.76,46.76,0,0,0,2.12,8.78,22.14,22.14,0,0,0,6.94,9.47,65.75,65.75,0,0,0,6.65,4.3,21.84,21.84,0,0,0,7.61,3.13c1.59.45,3.18.87,4.76,1.36a8.23,8.23,0,0,1,1.44.78c-3.68,0-4.51-.33-5.25-.09-4.16-.49-7.93-2.26-11.68-4a16.11,16.11,0,0,1-3.57-2.64,59.24,59.24,0,0,1-8.58-9.55c-1.86-2.51-3.3-5.33-5.28-7.69a16,16,0,0,0-6.41-5.06c-7.39-2.86-14.37-6.53-19.91-12.36-2.13-2.25-6.62-7.16-5-5.37s-1.61-2-2.68-3.58" fill="#fbc091"/>
        <path d="M70.62,119.22c-.08-1.2-1.06-1.86-1.7-2.68-2.9-3.76-4.9-8-7.07-12.18-1.44-2.77-2.39-5.75-4-8.4-.89-1.79-1.31-3.74-2-5.59-.8-3.84-1.87-7.61-2.8-11.41a7.6,7.6,0,0,1-.38-2.25c.18-2.09-.68-8.54-.78-10.65s-1.08-12.94-1.79-17.18c-.19-1.12,1.18-12.51,1.79-12.89C53.28,26,60.43,22,68,17s32.57-5,40.09-3.94,21.12,9.66,24.34,24.34c.83,2.41,1.07,9.31,1.07,12.89s-1.13,9.12-.72,14.32a61.92,61.92,0,0,1-.72,6.8c-.39,2-.61,5.13-1,6.53-1.12,4-1.54,8.17-2.38,12.23-.22,1.82-.94,2.68-1.15,4.5-.62,2.54-2.07,8-2.09,8.05-1.06,2.63-2,5.1-3.67,8.74a59.26,59.26,0,0,1-8.24,10.79c-4.39,3.73-9.13,6.79-14.9,8a25.4,25.4,0,0,1-15.75-2,47.51,47.51,0,0,1-7.9-5,39.62,39.62,0,0,1-4.34-4" fill="#fadfca"/>
        <path d="M129.11,90.19h-.86a163,163,0,0,1,3.38-16.81c1.05-.24,1.63-1.12,2.36-1.78.54,2.2,1.42,4.3.62,6.72a47.35,47.35,0,0,1-5.5,11.88" fill="#fbc091"/>
        <path d="M56.11,90.37l-1,1.08c-1.35-.67-1.44-2.14-2-3.27a33.79,33.79,0,0,1-3.92-10.54,8.88,8.88,0,0,1,0-3.64c1.26.86,2.19,2.21,3.81,2.52q1.48,6.17,2.94,12.34c.12.49.15,1,.22,1.51" fill="#fbc091"/>
        <path d="M142,105.25c-2-4.37-4.92-7.56-10.28-7.45-.91-2.52-1-5.35-2.61-7.61a.55.55,0,0,0-.86,0c-.11,1.85-1,3.57-.87,5.46-.12.77.07.8.35,1.54a4.67,4.67,0,0,1-.6,3,15.45,15.45,0,0,0-1.67,4.06l-.12.83c-.63,5.1-.16,8.3,4,12,3.34,3,6.9,3.84,10,1.84,2.57-1.67,4.34-4,4.34-7.33a14.93,14.93,0,0,0-1.67-6.33m-8.38,10.87c-4.59-2-5.94-7.34-5.05-10.83a8.85,8.85,0,0,1,2.57-3.72c1-1.09,2.66-.78,4,.06,3.63,2.31,4.66,6,5.41,9.23,0,4.52-3.39,6.77-6.92,5.25" fill="#f8b71f"/>
        <path d="M58.19,100.74C56.56,99,57.13,97.6,57.81,96c-.16-2-1.1-3.73-1.7-5.59-.72,0-1,.47-1,1.08l-1.45,6.34A11.24,11.24,0,0,0,44,103.51a14.72,14.72,0,0,0-1.55,3.34c-2.34,5.47-1.15,7.83,2.18,11.09,1.61,1.58,3.6,2.75,6,2,4.92-1.59,8.43-4.71,9.36-10,.56-3.22.69-6.64-1.71-9.19m-6,15.12c-3.56,2-7.49-.24-7.48-4.9.66-3.13,1.71-6.7,5-9,2.3-1.62,3.72-1.3,5.34,1a8.72,8.72,0,0,1-2.89,13" fill="#f8b71f"/>
        <path d="M45.14,103.19c.48-.49.82-.9,1.45-1.47-.64,2.16-1.06,4.41-3.27,5.68-.33-.34-.07-1,.17-1.74a7.65,7.65,0,0,1,.86-1.41,10.92,10.92,0,0,1,.79-1.05" fill="#ffedc4"/>
        <path d="M54.71,97.73c-.13-1.71.71-2.83.78-4.12,1,.94.73,2.58-.78,4.12" fill="#ffedc4"/>
        <path d="M131.92,73.37c-.87.21-1.43.2-1.15-1a10.42,10.42,0,0,0,0-2.13c.08-4.62.16-9.24.29-13.85a5.22,5.22,0,0,1,.43-1.94c.92-2.07.57-4.06-.07-6.13A21.13,21.13,0,0,1,130,41.26a12.25,12.25,0,0,1,.91-4.54c-3.62-1.21-5.94-4-7.68-7.21q0,1.84,0,3.67a6.83,6.83,0,0,1-3,5.95,26.62,26.62,0,0,1-4.08,2.75,3.65,3.65,0,0,1-4.39-.66c-.94-.87-1.9-1.72-2.85-2.59-2.66-2.44-3.11-3.6-2.69-7a3.86,3.86,0,0,0-1.59,3.85,8.34,8.34,0,0,0,2.59,4.11,11.34,11.34,0,0,0,1.34,1c1,.71,2.12,1.58,1.46,2.85s-2.08,1.09-3.31.75a6.11,6.11,0,0,1-4.3-4.25c-.48-1.45-1.29-2.78-1.78-4.35a21.94,21.94,0,0,1-.63,3.31,21.66,21.66,0,0,1-8,11,17.66,17.66,0,0,1-4.28,2.7c-2.68.91-4.11.42-5.68-2.07.46-1.17,1.66-1.22,2.61-1.66,4.75-2.19,8.35-5.49,10.15-10.52a6.86,6.86,0,0,0,.23-1,.86.86,0,0,0-.19-.92,16.8,16.8,0,0,1-4.46,4.79A19.56,19.56,0,0,1,74.81,45c-5.71-1.14-10.93-3.89-14.38-9a11.23,11.23,0,0,0-1-1.18,3.29,3.29,0,0,0-.56-.36,10,10,0,0,1-.31,5.46c-1.05,2.86-3.2,4.58-5.74,5.92-1,.51-1.2,1-.7,2A14.17,14.17,0,0,1,53.25,54c0,2.3-.14,4.62-.15,6.92s0,4.39,0,6.56c-.06,3,.65,6.08-.12,9.1a.53.53,0,0,1-.79.19c-1.09-.81-2.44-1.33-3-2.72-2.83-4-4.12-8.65-4.83-13.46a7.29,7.29,0,0,0-.9-2.28c-2-3.64-1.55-7.57-1.44-11.45a1.67,1.67,0,0,0-.61-1.56c-4-3.34-5.55-7.9-5.81-12.81a17.81,17.81,0,0,1,2.19-8.87,5.92,5.92,0,0,1,4.19-3.11c.67-.14,1.34-.34,1.48-1.13.78-4.16,4-6.15,7.28-8a15,15,0,0,0,1.93-1.21,13.87,13.87,0,0,1,7.57-2.61,33.71,33.71,0,0,1,5.08.06,6.22,6.22,0,0,0,4.34-1.29A30.27,30.27,0,0,1,81.74.85C86.86-.3,92.11-.51,97.09,1.69A16.74,16.74,0,0,1,104.22,7c6-3,11.3-2.68,15.3.89,3.39-2.29,6.45-.08,9.56,1a24.73,24.73,0,0,1,6.15,3c3.36,2.3,5.52,5.17,6,9.35.34,3.33.84,6.72-.11,9.91-1.47,4.93-.61,9.89-.78,14.83a13.12,13.12,0,0,1-1.23,5.8,9.13,9.13,0,0,0-1.25,4.57A26.72,26.72,0,0,1,134,71.59c-.41,1.09-.68,2-2.07,1.78" fill="#e8bb34"/>
        <path d="M96.27,93.83A1.76,1.76,0,0,1,98,95.57a1.17,1.17,0,0,1-1.16,1.33c-1.25,0-1.4-1-1.53-1.89-.11-.71.1-1.22,1-1.19" fill="#eb7926"/>
        <path d="M90.33,93.92c1.31,1,1,1.9-.09,2.71-1.5-.9-1.5-1.1.09-2.71" fill="#eb7926"/>
        <path d="M101.76,111.82c-1.95,2.48-3.68,5.17-7,6.06a6.4,6.4,0,0,1-3.42,0,20.62,20.62,0,0,1-3.19-1.4,6.7,6.7,0,0,1-3.64-3.58,2.08,2.08,0,0,0-2.13-1.54c-.64,0-1.48,0-1.85-1a32.53,32.53,0,0,0,6.45-4.54c1.49-1.25,3.31-1.65,5-.14a1.43,1.43,0,0,0,1.82.08,9.59,9.59,0,0,1,2.26-.93,3,3,0,0,1,3.07.76c1.54,1.47,3.08,3,5.22,3.68a1.27,1.27,0,0,1,1,.88c-.53.63-1.4.44-2,.79a2.66,2.66,0,0,1-1.94,0,11.14,11.14,0,0,0-6.92-.12,4.66,4.66,0,0,1-2.73.06,13.45,13.45,0,0,0-4.11-.3c-.47.06-.11.32-.22.15s0-.1.11-.1a12.24,12.24,0,0,1,3.94.24,8.6,8.6,0,0,0,4.25-.12,8.39,8.39,0,0,1,5.13.08c.49.2,1,.35.88,1" fill="#e9334b"/>
        <path d="M101.76,111.82c-1.16-1.49-2.87-1.14-4.26-.91a18,18,0,0,1-8-.05,19.62,19.62,0,0,0-2.77-.15,6.7,6.7,0,0,1,4.23-.51,10,10,0,0,0,4.14-.08,10,10,0,0,1,5.31.08,17.91,17.91,0,0,0,3,.69l-1.6.94" fill="#ef5870"/>
        <path d="M87.94,114.18c1.17-1.16,4.28-1,5.12.24-2.11,1.47-4,1.38-5.12-.24" fill="#ef5870"/>
        <path d="M109,65.1c2.95-2.89,6.14-5.07,10.57-3.62L109,65.1" fill="#ad623a"/>
        <path d="M65.07,60.7c3.58-1.21,6.33.56,9,2.53-2.34-.2-4.44-1.35-6.72-1.8a6.16,6.16,0,0,1-2.31-.73" fill="#ad623a"/>
        <path d="M129.27,84.49c-1.75.5-2.81,2-4.21,3a19.92,19.92,0,0,1-11.74,3.81c-3.32,0-6.64.22-9.88-.9-3.49-1.2-6.49-3-8.18-6.43a12.84,12.84,0,0,0-.81-1.3,1.21,1.21,0,0,0-2-.28,4.92,4.92,0,0,0-1.36,1.45c-2.38,4.41-6.45,6.34-11,7.08-6.36,1-12.67.64-18.39-2.79-2.08-1.25-3.93-2.89-5.9-4.33a6.35,6.35,0,0,0-1.09-.52,25.27,25.27,0,0,1-5.6-6.77,33,33,0,0,1-3-8.12,8.45,8.45,0,0,1,5-6c.65-.29,1.32-.5,2-.75,2.62-1,5.25-1.9,8.12-1.45,1.16.18,2.34,0,3.49.18,3.1.8,6.15,1.8,9.28,2.51,1.89.93,4,1.37,5.92,2.12a31.51,31.51,0,0,1,8.78,5.54,18.22,18.22,0,0,0,4.47,2.33,1.56,1.56,0,0,0,1.35,0c1.46-.85,3.24-1.12,4.53-2.21a40.9,40.9,0,0,1,9.33-5.56c.13-.08.27-.15.41-.22a3.08,3.08,0,0,1,.43-.19c3.56-1.37,7.21-2.45,10.8-3.71,3-.51,5.91-1.06,8.91-.28a5.78,5.78,0,0,1,2.08.89c2.41.24,4.37,1.52,6.33,2.79.11,1,1,1.46,1.27,2.4.78,3-.12,5.66-1.53,8.2a47.53,47.53,0,0,0-2.76,4.56,17.92,17.92,0,0,1-5,4.91" fill="#fff"/>
        <path d="M75.24,86.38c-7.74,0-13.08-3.78-16.5-10.49-1.55-3-.28-5.63,3.31-7.36a7.2,7.2,0,0,1,4.34-.44c5.89.82,11.39,2.62,16,6.45,3.44,2.84,4.11,6.7.89,9.45a10.25,10.25,0,0,1-6.37,2.38c-.56,0-1.13,0-1.69,0" fill="#40b4e5"/>
        <path d="M110.79,86.63c-2.63-.31-5.22-.58-7.44-2.23a5.29,5.29,0,0,1-1.42-7.56c2.36-3.66,6.12-5.29,9.94-6.79A36.43,36.43,0,0,1,121,68c2.59-.31,6.63,2.9,6.68,5.43a7.17,7.17,0,0,1-1.15,3.46,18.18,18.18,0,0,1-8.57,8.25,23.67,23.67,0,0,1-7.14,1.53" fill="#40b4e5"/>
        <rect x="25.36" y="3.72" width="151.58" height="243.17" fill="none"/>
      </g>
    </g>
  </g>
</svg>
