<svg xmlns="http://www.w3.org/2000/svg" width="29" height="29" viewBox="0 0 29 29">
  <g id="icon_mail_29" transform="translate(-0.001)">
    <g id="Group_522" data-name="Group 522" transform="translate(0.001)">
      <path id="Path_323" data-name="Path 323" d="M14.5,0A14.5,14.5,0,1,0,29,14.5,14.5,14.5,0,0,0,14.5,0Zm0,5.093,8.581,5.351H5.921Zm8.688,13.895h0a1.554,1.554,0,0,1-1.554,1.554H7.368a1.554,1.554,0,0,1-1.554-1.554v-8.2a1.545,1.545,0,0,1,.024-.266l8.2,5.112c.01.006.021.011.031.016l.033.017a.861.861,0,0,0,.179.07l.019,0a.884.884,0,0,0,.2.026h0a.869.869,0,0,0,.2-.026l.019,0a.869.869,0,0,0,.179-.07l.033-.017c.01-.006.021-.01.031-.016l8.2-5.112a1.543,1.543,0,0,1,.024.266v8.2Z" transform="translate(-0.001)" fill="#91cbd1"/>
    </g>
  </g>
</svg>
