<svg xmlns="http://www.w3.org/2000/svg" width="29" height="29" viewBox="0 0 29 29">
  <g id="icon_whatsapp_29" transform="translate(0 -0.134)">
    <path id="Path_324" data-name="Path 324" d="M14.492.134A14.5,14.5,0,0,0,2.3,22.458L.04,28.31a.6.6,0,0,0,.564.822.587.587,0,0,0,.2-.035L6.845,26.94A14.5,14.5,0,1,0,14.492.134Z" transform="translate(0 0)" fill="#91cbd1"/>
    <path id="Path_325" data-name="Path 325" d="M142.166,137.863s-1.479-.725-2.406-1.208c-1.048-.54-2.28.471-2.86,1.046a6.585,6.585,0,0,1-3.962-3.964c.575-.581,1.583-1.812,1.046-2.861-.477-.928-1.208-2.407-1.208-2.408a.6.6,0,0,0-.539-.332h-1.208a3.64,3.64,0,0,0-3.019,3.625c0,1.9,2.269,5.541,3.8,7.073s5.172,3.8,7.069,3.8a3.639,3.639,0,0,0,3.623-3.021v-1.208A.6.6,0,0,0,142.166,137.863Z" transform="translate(-120.765 -120.752)" fill="#fafafa"/>
  </g>
</svg>
