<svg xmlns="http://www.w3.org/2000/svg" viewBox="0 0 198.92 63.94">
  <title>inspiring_icon_2</title>
  <g id="Layer_2" data-name="Layer 2">
    <g id="logo">
      <g>
        <rect x="2.42" y="2.42" width="196.5" height="27.4" fill="#fbee23"/>
        <rect width="196.5" height="27.4"/>
        <rect x="33.34" y="36.55" width="134.67" height="27.4" fill="#fbee23"/>
        <rect x="30.91" y="34.13" width="134.67" height="27.4"/>
        <path d="M183.12,13.3l1.18,1.21a5.14,5.14,0,0,1,1.65,3.62c0,.64,0,1.21,0,1.72a2,2,0,0,1-.34,1.14,1.3,1.3,0,0,1-1.07.37,1.06,1.06,0,0,1-1.07-.79,9.49,9.49,0,0,1-.29-2.83V15.87h-2.06v1.9a11.56,11.56,0,0,0,.38,3.25,2.91,2.91,0,0,0,3.1,2.21A2.88,2.88,0,0,0,187.3,22,7.55,7.55,0,0,0,188,18.3,7.64,7.64,0,0,0,185.81,13l-1.23-1.34-.5-.54a5.63,5.63,0,0,1-.76-1A3.45,3.45,0,0,1,183,8.43a3.46,3.46,0,0,1,.34-1.71,1.18,1.18,0,0,1,1.1-.58,1.05,1.05,0,0,1,.66.2,1.57,1.57,0,0,1,.43.81,10.46,10.46,0,0,1,.17,2.38v1.24h2V9.67a16,16,0,0,0-.21-2.81,2.83,2.83,0,0,0-3.09-2.59,3,3,0,0,0-2.76,1.18,6.1,6.1,0,0,0-.72,3.2,6,6,0,0,0,.18,1.59,7.63,7.63,0,0,0,2,3.06M169.81,23h5.44v-1.8h-3.33V4.5h-2.12ZM160.56,9.16a13.6,13.6,0,0,1-.12,2.15,1.56,1.56,0,0,1-.41.93,1.38,1.38,0,0,1-.9.24h-1.35V6.23h1.33a1.57,1.57,0,0,1,1.08.34c.25.22.37,1.05.37,2.47ZM155.66,23h2.12V14.08l1.26.07a1.74,1.74,0,0,1,1.15.32c.25.21.38,1,.38,2.31a51,51,0,0,0,.16,6.24h2.11a15.14,15.14,0,0,1-.16-3.09q0-2.65-.14-4a5.32,5.32,0,0,0-.49-2,1.4,1.4,0,0,0-1-.73A1.94,1.94,0,0,0,162.3,12a6.89,6.89,0,0,0,.36-2.39q0-1.42-.06-2.1a3.61,3.61,0,0,0-.85-2.32,3.25,3.25,0,0,0-2.31-.69h-3.77ZM146,23h2.12V4.5H146Zm-14.41-5.52a8.74,8.74,0,0,0,.82,4.33A2.74,2.74,0,0,0,135,23.2a2.27,2.27,0,0,0,2.31-1.61l.29,1.43h1.11V13.3h-3.41V15h1.46V17.4a10.32,10.32,0,0,1-.32,3.11,1.19,1.19,0,0,1-1.2.89,1.15,1.15,0,0,1-1.17-.87,11,11,0,0,1-.3-3.09V9.65a7.5,7.5,0,0,1,.34-2.72,1.18,1.18,0,0,1,1.16-.77,1.1,1.1,0,0,1,1.1.61,5.25,5.25,0,0,1,.28,2v2.41h2V9.79a16.45,16.45,0,0,0-.21-2.88,3.43,3.43,0,0,0-1-1.9,3.32,3.32,0,0,0-2.38-.72,3.59,3.59,0,0,0-1.62.39q-1.88,1-1.88,5.07Zm-22.56,0a8.74,8.74,0,0,0,.82,4.33,2.74,2.74,0,0,0,2.52,1.36,2.27,2.27,0,0,0,2.31-1.61L115,23h1.12V13.3h-3.41V15h1.46V17.4a10.2,10.2,0,0,1-.32,3.11,1.19,1.19,0,0,1-1.2.89,1.15,1.15,0,0,1-1.17-.87,10.84,10.84,0,0,1-.3-3.09V9.65a7.59,7.59,0,0,1,.34-2.72,1.18,1.18,0,0,1,1.16-.77,1.1,1.1,0,0,1,1.1.61,5.26,5.26,0,0,1,.28,2v2.41h2V9.79a16.45,16.45,0,0,0-.21-2.88,3.45,3.45,0,0,0-1-1.9,3.32,3.32,0,0,0-2.38-.72,3.59,3.59,0,0,0-1.62.39q-1.88,1-1.88,5.07Zm-9-5.76.21,5.36L96.09,4.5h-1.6V23h2V15l-.12-4.67,4,12.72h1.56V4.5H100ZM84.86,23H87V4.5H84.86ZM75.45,9.16a13.6,13.6,0,0,1-.12,2.15,1.58,1.58,0,0,1-.41.93,1.39,1.39,0,0,1-.9.24H72.66V6.23H74a1.57,1.57,0,0,1,1.08.34c.25.22.37,1.05.37,2.47ZM70.55,23h2.12V14.08l1.26.07a1.74,1.74,0,0,1,1.15.32c.25.21.38,1,.38,2.31A50.27,50.27,0,0,0,75.61,23h2.11a14.91,14.91,0,0,1-.16-3.09q0-2.65-.14-4a5.32,5.32,0,0,0-.49-2,1.4,1.4,0,0,0-1-.73A1.94,1.94,0,0,0,77.18,12a6.89,6.89,0,0,0,.36-2.39q0-1.42-.06-2.1a3.61,3.61,0,0,0-.85-2.32,3.25,3.25,0,0,0-2.31-.69H70.55ZM60.4,23h2.12V4.5H60.4ZM51.11,10.09a10.35,10.35,0,0,1-.3,3,1.16,1.16,0,0,1-1.2.81H48.33V6.23h1.34a1.13,1.13,0,0,1,1.15.8,8.81,8.81,0,0,1,.29,2.71ZM46.21,23h2.12V15.75h1.5a3,3,0,0,0,2.33-.87,5,5,0,0,0,1-2.76q.09-.86.09-2.58a10.41,10.41,0,0,0-.39-3,2.8,2.8,0,0,0-3-2H46.21ZM34.64,13.3l1.18,1.21a5.14,5.14,0,0,1,1.65,3.62c0,.64,0,1.21,0,1.72A2,2,0,0,1,37.07,21a1.29,1.29,0,0,1-1.07.37,1.06,1.06,0,0,1-1.07-.79,9.49,9.49,0,0,1-.29-2.83V15.87H32.59v1.9A11.45,11.45,0,0,0,33,21a2.91,2.91,0,0,0,3.1,2.21A2.88,2.88,0,0,0,38.82,22a7.55,7.55,0,0,0,.72-3.67A7.64,7.64,0,0,0,37.33,13L36.1,11.64l-.5-.54a5.75,5.75,0,0,1-.76-1,3.41,3.41,0,0,1-.31-1.66,3.5,3.5,0,0,1,.34-1.71A1.18,1.18,0,0,1,36,6.13a1.06,1.06,0,0,1,.66.2,1.59,1.59,0,0,1,.43.81,10.4,10.4,0,0,1,.18,2.38v1.24h2V9.67a16,16,0,0,0-.2-2.81A2.84,2.84,0,0,0,36,4.27a3,3,0,0,0-2.76,1.18,6.13,6.13,0,0,0-.72,3.2,6,6,0,0,0,.18,1.59,7.62,7.62,0,0,0,2,3.06m-11-1.55.21,5.36L19.71,4.5h-1.6V23h2V15l-.12-4.67L24,23h1.55V4.5H23.67ZM8.48,23H10.6V4.5H8.48Z" fill="#fff"/>
        <path d="M155.19,47.79c-.17.39-.58.59-1.21.59a1.15,1.15,0,0,1-1.23-.77,10.18,10.18,0,0,1-.27-2.9V43.64a9.41,9.41,0,0,1,.26-2.58,1.06,1.06,0,0,1,1.1-.83,1.11,1.11,0,0,1,.7.21,1.66,1.66,0,0,1,.46.82,9.27,9.27,0,0,1,.2,2.37Zm-4.8-3.38a10.55,10.55,0,0,0,.67,4.28,2.58,2.58,0,0,0,2.59,1.42,2.32,2.32,0,0,0,1.54-.45v2.88a8.25,8.25,0,0,1-.21,2.34.84.84,0,0,1-.87.57,1.2,1.2,0,0,1-1-.45,7,7,0,0,1-.35-3v-.32h-2v.67a7.48,7.48,0,0,0,.77,3.78,2.58,2.58,0,0,0,2.35,1.16,3,3,0,0,0,2.41-.91q1-1.18,1-4.94V44c0-.76,0-1.39-.06-1.9a5.05,5.05,0,0,0-.9-2.82,3,3,0,0,0-2.46-.92,3.11,3.11,0,0,0-2.53,1,4.32,4.32,0,0,0-.66,1.44,12.19,12.19,0,0,0-.29,3.14Zm-10.78-3.88h3.72v-2h-5.65v9.19l1.82.17c0-1.31.4-2,1.19-2a.83.83,0,0,1,.81.53,4.36,4.36,0,0,1,.24,1.65v5.53a2.75,2.75,0,0,1-.26,1.37.91.91,0,0,1-.85.44.87.87,0,0,1-.83-.45,2.67,2.67,0,0,1-.24-1.25V51.72h-2v2q0,3.54,3.14,3.54a2.45,2.45,0,0,0,2.65-1.66,10.45,10.45,0,0,0,.32-1.32,32.75,32.75,0,0,0,.16-4.26q0-4.42-1.12-5.45a1.79,1.79,0,0,0-1.24-.49h0c-.94,0-1.53.24-1.77.73Zm-11.47,7.26c-.17.39-.57.59-1.21.59a1.16,1.16,0,0,1-1.23-.77,10.18,10.18,0,0,1-.27-2.9V43.64a9.41,9.41,0,0,1,.26-2.58,1.06,1.06,0,0,1,1.1-.83,1.11,1.11,0,0,1,.7.21,1.66,1.66,0,0,1,.46.82,9.27,9.27,0,0,1,.2,2.37Zm-4.8-3.38a10.56,10.56,0,0,0,.66,4.28,2.58,2.58,0,0,0,2.59,1.42,2.31,2.31,0,0,0,1.54-.45v2.88a8.25,8.25,0,0,1-.21,2.34.84.84,0,0,1-.87.57,1.2,1.2,0,0,1-1-.45,7,7,0,0,1-.35-3v-.32h-2v.67a7.46,7.46,0,0,0,.76,3.78,2.58,2.58,0,0,0,2.35,1.16,3,3,0,0,0,2.41-.91q1-1.18,1-4.94V44c0-.76,0-1.39-.06-1.9a5.05,5.05,0,0,0-.9-2.82,3,3,0,0,0-2.46-.92,3.11,3.11,0,0,0-2.53,1,4.27,4.27,0,0,0-.66,1.44,12.05,12.05,0,0,0-.29,3.14Zm-9.55-4.26a3.52,3.52,0,0,1-1.65.73v1.52a3.59,3.59,0,0,0,1.25-.24,2.24,2.24,0,0,0,1-.67v15.6h2.11V38.56H115a3.8,3.8,0,0,1-1.19,1.59M91.3,57.09h5.42V55.28h-3.3V48.52h3.09V46.71H93.42V40.38h3.26V38.57H91.3Zm-14-5.46a8.72,8.72,0,0,0,.82,4.27,2.91,2.91,0,0,0,2.74,1.41,2.83,2.83,0,0,0,2.7-1.37,9.1,9.1,0,0,0,.77-4.29v-2h-2.1v2.05A10.54,10.54,0,0,1,82,54.62a1.1,1.1,0,0,1-1.12.84,1.11,1.11,0,0,1-1.12-.84,10.15,10.15,0,0,1-.29-2.94v-8a7.74,7.74,0,0,1,.32-2.61,1.18,1.18,0,0,1,1.17-.83,1.07,1.07,0,0,1,.68.21,1.67,1.67,0,0,1,.46.83,10,10,0,0,1,.19,2.41v2.06h2.08V43.68a10.86,10.86,0,0,0-.39-3.22,2.87,2.87,0,0,0-3-2.12,3.19,3.19,0,0,0-2.54,1,4.45,4.45,0,0,0-.74,1.45,10.32,10.32,0,0,0-.34,3.1Zm-9-5.81.21,5.35L64.33,38.57h-1.6V57.09h2v-8l-.12-4.67,4,12.71h1.55V38.57H68.29ZM53.11,57.09h2.12V38.57H53.11ZM41.37,47.37l1.18,1.21A5.14,5.14,0,0,1,44.2,52.2c0,.64,0,1.21,0,1.72a2,2,0,0,1-.34,1.14,1.3,1.3,0,0,1-1.07.37,1.06,1.06,0,0,1-1.06-.79,9.46,9.46,0,0,1-.29-2.83V49.94H39.33v1.9a11.42,11.42,0,0,0,.38,3.25,2.91,2.91,0,0,0,3.1,2.21A2.88,2.88,0,0,0,45.55,56a7.53,7.53,0,0,0,.72-3.67A7.64,7.64,0,0,0,44.06,47L42.84,45.7l-.5-.54a5.45,5.45,0,0,1-.76-1,3.43,3.43,0,0,1-.31-1.66,3.47,3.47,0,0,1,.34-1.72,1.18,1.18,0,0,1,1.1-.58,1.07,1.07,0,0,1,.67.2,1.59,1.59,0,0,1,.43.81A10.4,10.4,0,0,1,44,43.59v1.24h2v-1.1a16,16,0,0,0-.21-2.81,2.83,2.83,0,0,0-3.09-2.59A3,3,0,0,0,40,39.52a7.32,7.32,0,0,0-.54,4.79,7.61,7.61,0,0,0,2,3.06" fill="#fff"/>
      </g>
    </g>
  </g>
</svg>
