<svg xmlns="http://www.w3.org/2000/svg" viewBox="0 0 163.27 80.79">
  <title>logo_barbie_1</title>
  <g id="Layer_2" data-name="Layer 2">
    <g id="logo">
      <g>
        <path d="M163.22,55.28c-.06-.43-1.92-5.93-3.52-4.17S154,59.57,140.92,66.72c-6.45,3.52-7-.9-7.28-2.69,0,0,8.92-6.25,13.47-14.53,3.09-5.63,1.1-6.91-.17-8.18s-4-3.77-7.76-1S126.5,51.82,127.47,61.49C126,63,121.79,66.43,119,65.81s.15-6.52,2.2-10.55,6-7.23,7.27-9.05.55-2.41.3-2.69a8.66,8.66,0,0,1-1.7-2.29,1.32,1.32,0,0,0-2.15-.49c-5.9,3.87-10,14.1-10,14.1a3.08,3.08,0,0,1-3.3.67c-.52-.2-.91-1.48-1-2.13a20.76,20.76,0,0,0-.73-3.28c-.28-.59-.59-.88-2.12-.42a8.14,8.14,0,0,0-3.57,2.24c-.52.6-.28.74-.15,2.64a4,4,0,0,1-.51,2.6c-1,2.48-2.71,5.64-3.25,6.71s-3.85,5.41-5.22,5.52c-1.22.1-1.67-1.86-1.67-1.86s-.7-4.52-.2-6.76c23.69-26.69,29.62-45.53,29.62-45.53.11-.32.66-1.42-1-3.93-2.19-3.25-4.48-3.12-4.48-3.12s-1.6-.2-5.14,3.46C89.62,35,87.39,59.47,87.39,59.47a6.29,6.29,0,0,1-1.28,1.62A10.87,10.87,0,0,1,83.59,63s-1.43.37-1.74-.84a6.63,6.63,0,0,1,0-2.43,27.39,27.39,0,0,1,1.49-4.18s2.09-4.53,2.55-5.87a5.76,5.76,0,0,0-.07-3.88c-.43-1.05-2.35-2.13-3-2.55a2.17,2.17,0,0,1-1.16-1.93c0-.29-.25-.54.91-3.09s-1-3.18-1.6-3.28a4.17,4.17,0,0,0-3.9.74c-2.78,2.44-2.86,6.71-2.86,6.71a4,4,0,0,1-.08,1.75c-.16.36-.54,1.06-1.54,3.1s-3.15,6.22-4.47,8.53a36.68,36.68,0,0,1-3.64,5.29A9.76,9.76,0,0,1,63,62.47s-1,.75-1-1.1,2.63-7.83,2.63-7.83,1.86-4.61,2.1-5.16a2.51,2.51,0,0,0,0-2.47,3.75,3.75,0,0,0-3.65-1c-.88.44-2.45,3.11-3.39,4.63-1.18,1.93-3.1,5.68-5.31,9.39a13.71,13.71,0,0,1-4.51,4.9,2,2,0,0,1-2.27-.13c-.57-.51-5.2-4.61,5.85-16.91,4.55-5.07,6.93-5.92,9.3-4.26.92.64,1.82,1.75,3,1.78,2,.06,2.65-2.4,2.65-2.4.07-.43,1.81-5.11-5.64-5.2-12.09-.13-19,13.52-19,13.52-2.31-8.71-8.85-9.37-8.85-9.37C42.4,35.6,46.7,32.21,52.16,22.77S49.67,5.86,49.67,5.86C46.29,1.77,38-2.49,24.09,1.77,9.53,6.21,8.32,9.76,6.87,14.1s1.4,3.22,3.15,2.37,8.61-3.65,8.61-3.65S1.24,66.44.73,69c-.46,2.34-2.75,8.7,4.2,9.56A4.77,4.77,0,0,0,7,78.41c1-.36,1-1,1-1a40,40,0,0,1,1.25-4.17C13.06,84.72,25.38,81.38,33,74.65A42.39,42.39,0,0,0,41.83,63.1c4.7,10.24,10.36,4.83,10.36,4.83a37.7,37.7,0,0,0,5.26-6.11c1.78,8.35,8,4.87,8,4.87,2.92-1.74,5.85-7,6.43-8,3.31-5.47,6.42-12.1,6.42-12.1s.42,0,1.36.84.43,1.92.08,3-1.7,3.91-2.4,6.3a9.9,9.9,0,0,0,.11,7A8.1,8.1,0,0,0,83,67.87c2.42.27,4.66-1.66,4.66-1.66a9.66,9.66,0,0,0,5.1,8.24c6.2,3.23,12-7,12-7,3.95-6.45,3.62-8.07,4-9.06.45.59,1.58,1.23,3.95,1.69a9,9,0,0,0,0,4.48s1.8,4.55,5.88,5.65C123,71.37,128.72,67,128.72,67s6.53,11.23,21.14,1.48S163.28,55.71,163.22,55.28ZM21.88,11.47S37.67,3.9,44.48,7.72s4.74,10.67-5.64,22c0,0-7.93,7.12-12.67,9.12,0,0-6,.92-7.68,1.78,0,0,1.42-4.69,3.12-10,2.11-6.64,4.85-14,3.33-15.92A16.59,16.59,0,0,0,21.88,11.47Zm8.46,57S21,77.71,17.82,74.12c-3-3.4,2.4-8,4.5-9.1C25.05,63.57,33.31,62,30.34,68.45Zm4.16-6S26,51.1,11.42,64.43l4.81-16.62s5.09.48,12.2-2.83C28.43,45,43.79,45.47,34.5,62.44Zm79.32-44.61c1.38-1.3,1,.13.86.56A116.72,116.72,0,0,1,95.19,51S102.22,28.73,113.83,17.82Zm29.36,25.95c.48-.33,1.09.15.71,1.11a28.8,28.8,0,0,1-10.5,12.66S134.19,49.89,143.18,43.77Zm-14.77-5.9c1.67.81,1.67.38,2.1-.28A23.66,23.66,0,0,1,133.42,35a17.67,17.67,0,0,0,4.67-4.68c2.26-3.17.29-5.25-1.58-7s-6.17.64-9.43,5.59S126.75,37.07,128.41,37.87Z" fill="#fff"/>
        <g>
          <polygon points="151.48 69.29 153.95 69.29 153.95 69.65 152.92 69.65 152.92 72.33 152.51 72.33 152.51 69.65 151.48 69.65 151.48 69.29" fill="#fff"/>
          <path d="M156.83,72.33v-1.8c0-.09,0-.48,0-.76h0L156,72.33h-.41l-.86-2.55h0c0,.28,0,.67,0,.75v1.8h-.4v-3h.59l.87,2.57h0l.87-2.57h.58v3Z" fill="#fff"/>
        </g>
      </g>
    </g>
  </g>
</svg>
