<svg xmlns="http://www.w3.org/2000/svg" viewBox="0 0 235.25 19.11">
  <title>running_60th_banner</title>
  <g id="Layer_2" data-name="Layer 2">
    <g id="logo">
      <g>
        <rect x="2.1" y="1.35" width="233.15" height="17.76" fill="#faec22"/>
        <rect width="233.15" height="16.97" fill="#231f20"/>
        <g>
          <path d="M9.84,10.13q0,2.1-1.92,2.1H6V4.73H7.79a1.68,1.68,0,0,1,1.9,1.91A1.64,1.64,0,0,1,8.51,8.27,2.51,2.51,0,0,1,9.5,9,1.88,1.88,0,0,1,9.84,10.13ZM8.68,6.78q0-1.27-1-1.27H7V7.94h.64a1,1,0,0,0,.77-.33A1.23,1.23,0,0,0,8.68,6.78Zm.15,3.31q0-1.36-1.26-1.36H7v2.73H7.7Q8.83,11.45,8.83,10.09Z" fill="#fff"/>
          <path d="M16.74,12.24h-1l-.24-1.74H13.81l-.24,1.74h-1L14,4.73h1.39ZM15.4,9.66,14.83,6h-.3l-.58,3.69Z" fill="#fff"/>
          <path d="M23.62,12.24h-1L21.67,9a8.87,8.87,0,0,1-1,0v3.21h-1V4.73H21.4a2.13,2.13,0,0,1,1.6.52,2.31,2.31,0,0,1,.49,1.63,1.85,1.85,0,0,1-1,1.89ZM22.49,6.88a1.75,1.75,0,0,0-.23-1,1.07,1.07,0,0,0-.92-.35H20.7V8.24h.63a1.07,1.07,0,0,0,.92-.35A1.75,1.75,0,0,0,22.49,6.88Z" fill="#fff"/>
          <path d="M30.11,10.13q0,2.1-1.92,2.1H26.24V4.73h1.82A1.68,1.68,0,0,1,30,6.64a1.64,1.64,0,0,1-1.18,1.62,2.51,2.51,0,0,1,1,.71A1.88,1.88,0,0,1,30.11,10.13ZM28.95,6.78q0-1.27-1-1.27h-.67V7.94h.64a1,1,0,0,0,.77-.33A1.23,1.23,0,0,0,28.95,6.78Zm.15,3.31q0-1.36-1.26-1.36h-.59v2.73H28Q29.1,11.45,29.1,10.09Z" fill="#fff"/>
          <path d="M34.21,12.24h-1V4.73h1Z" fill="#fff"/>
          <path d="M40.79,12.24H37.4V4.73h3.24v.84H38.41V7.92h1.72v.84H38.41V11.4h2.38Z" fill="#fff"/>
          <path d="M51.53,10.12a3.07,3.07,0,0,1-.32,1.59,1.54,1.54,0,0,1-1.41.63,1.62,1.62,0,0,1-1.36-.53,2.36,2.36,0,0,1-.37-1.46V6.61a2.41,2.41,0,0,1,.35-1.46,1.64,1.64,0,0,1,1.37-.53q1.57,0,1.57,1.89h-.84a2.26,2.26,0,0,0-.1-.78.62.62,0,0,0-.63-.37q-.78,0-.78.9V8.49A5.71,5.71,0,0,1,49.58,8a1.16,1.16,0,0,1,.7-.23q1.26,0,1.26,1.44Zm-.95.57V9.39q0-.9-.72-.9a1.61,1.61,0,0,0-.85.44v1.76q0,.91.78.91T50.59,10.69Z" fill="#fff"/>
          <path d="M58,10.36a2.36,2.36,0,0,1-.37,1.46,2,2,0,0,1-2.73,0,2.36,2.36,0,0,1-.37-1.46V6.61a2.41,2.41,0,0,1,.35-1.46,2.06,2.06,0,0,1,2.75,0A2.41,2.41,0,0,1,58,6.61Zm-.95.33V6.27q0-.9-.78-.9t-.78.9v4.42q0,.91.78.91T57,10.69Z" fill="#fff"/>
          <path d="M64.14,5.57H62.85v6.67h-1V5.57H60.56l0-.84h3.59Z" fill="#fff"/>
          <path d="M70.68,12.24h-1V8.76H67.93v3.48h-1V4.73h1V7.92h1.74V4.73h1Z" fill="#fff"/>
          <path d="M82.35,12.24h-1l-.24-1.74H79.41l-.24,1.74h-1l1.36-7.51H81ZM81,9.66,80.44,6h-.3l-.58,3.69Z" fill="#fff"/>
          <path d="M89.26,12.24h-.87l-1.7-4.9h-.3v4.9H85.5V4.73h1l1.62,4.48h.3V4.73h.88Z" fill="#fff"/>
          <path d="M96.43,12.24h-.87l-1.71-4.9h-.3v4.9h-.88V4.73h1l1.62,4.48h.3V4.73h.88Z" fill="#fff"/>
          <path d="M100.92,12.24h-1V4.73h1Z" fill="#fff"/>
          <path d="M108.12,4.73l-1.56,7.51H105.5l-1.56-7.51h1l1,5.43h.3l1-5.43Z" fill="#fff"/>
          <path d="M114.21,12.24h-3.39V4.73h3.24v.84h-2.23V7.92h1.72v.84h-1.72V11.4h2.38Z" fill="#fff"/>
          <path d="M121.05,12.24h-1L119.1,9a8.87,8.87,0,0,1-1,0v3.21h-1V4.73h1.71a2.13,2.13,0,0,1,1.6.52,2.31,2.31,0,0,1,.49,1.63,1.85,1.85,0,0,1-1,1.89Zm-1.14-5.36a1.75,1.75,0,0,0-.23-1,1.07,1.07,0,0,0-.92-.35h-.63V8.24h.63a1.07,1.07,0,0,0,.92-.35A1.75,1.75,0,0,0,119.92,6.88Z" fill="#fff"/>
          <path d="M127.41,10.5a1.75,1.75,0,0,1-.53,1.37,2,2,0,0,1-1.41.48,1.66,1.66,0,0,1-1.29-.56,2.22,2.22,0,0,1-.54-1.31l.95-.14q.15,1.17.94,1.17a1,1,0,0,0,.67-.24.83.83,0,0,0,.26-.65,1.93,1.93,0,0,0-.7-1.35l-1.31-1.18a2.43,2.43,0,0,1-.7-1.68,1.7,1.7,0,0,1,.5-1.33,2,2,0,0,1,1.4-.45,1.53,1.53,0,0,1,1.14.46,2,2,0,0,1,.53,1.13l-.95.11q-.14-.86-.85-.86a.75.75,0,0,0-.61.26,1,1,0,0,0-.21.67,1.87,1.87,0,0,0,.7,1.27l1.31,1.19A2.46,2.46,0,0,1,127.41,10.5Z" fill="#fff"/>
          <path d="M134.29,12.24h-1l-.24-1.74h-1.74l-.24,1.74h-1l1.36-7.51h1.38ZM133,9.66,132.38,6h-.3l-.58,3.69Z" fill="#fff"/>
          <path d="M141.18,12.24h-1L139.22,9a8.87,8.87,0,0,1-1,0v3.21h-1V4.73H139a2.14,2.14,0,0,1,1.61.52A2.31,2.31,0,0,1,141,6.88a1.86,1.86,0,0,1-1,1.89ZM140,6.88a1.75,1.75,0,0,0-.23-1,1.07,1.07,0,0,0-.92-.35h-.63V8.24h.63a1.07,1.07,0,0,0,.92-.35A1.75,1.75,0,0,0,140,6.88Z" fill="#fff"/>
          <path d="M148,4.73l-.85,2.19a15.35,15.35,0,0,0-.7,2.19v3.12h-1V9.11a15.25,15.25,0,0,0-.7-2.19l-.85-2.19h1l.93,3h.26l.89-3Z" fill="#fff"/>
          <path d="M158.57,5.57h-2.38V7.92H158v.84h-1.78v3.48h-1V4.73h3.39Z" fill="#fff"/>
          <path d="M165.15,10.42a2,2,0,0,1-.49,1.42,2.17,2.17,0,0,1-2.78,0,2,2,0,0,1-.49-1.42V4.73h1v5.75q0,1,.87,1t.87-1V4.73h1Z" fill="#fff"/>
          <path d="M172,12.24h-.87l-1.7-4.9h-.3v4.9h-.88V4.73h1l1.62,4.48h.3V4.73H172Z" fill="#fff"/>
          <path d="M183.52,12.24h-1L181.57,9a8.86,8.86,0,0,1-1,0v3.21h-1V4.73h1.71a2.14,2.14,0,0,1,1.61.52,2.31,2.31,0,0,1,.49,1.63,1.86,1.86,0,0,1-1,1.89Zm-1.14-5.36a1.75,1.75,0,0,0-.23-1,1.07,1.07,0,0,0-.92-.35h-.63V8.24h.63a1.07,1.07,0,0,0,.92-.35A1.75,1.75,0,0,0,182.39,6.88Z" fill="#fff"/>
          <path d="M190,10.42a2,2,0,0,1-.49,1.42,2.17,2.17,0,0,1-2.78,0,2,2,0,0,1-.49-1.42V4.73h1v5.75q0,1,.87,1t.87-1V4.73h1Z" fill="#fff"/>
          <path d="M196.82,12.24h-.87l-1.7-4.9h-.3v4.9h-.88V4.73h1l1.62,4.48h.3V4.73h.88Z" fill="#fff"/>
          <path d="M207.88,6.19A5.78,5.78,0,0,1,206.94,9q-.31.53-1.69,2.48h2.5v.78h-3.38V11.4Q205.67,9.49,206,9a5.74,5.74,0,0,0,1-2.6q0-1-.76-1a.67.67,0,0,0-.7.45,2.61,2.61,0,0,0-.11.89h-.95V6.5a1.89,1.89,0,0,1,.49-1.36,1.73,1.73,0,0,1,1.32-.52,1.65,1.65,0,0,1,1.17.45A1.47,1.47,0,0,1,207.88,6.19Z" fill="#fff"/>
          <path d="M214.3,10.36a2.36,2.36,0,0,1-.37,1.46,2,2,0,0,1-2.73,0,2.36,2.36,0,0,1-.37-1.46V6.61a2.41,2.41,0,0,1,.35-1.46,2.06,2.06,0,0,1,2.75,0,2.41,2.41,0,0,1,.35,1.46Zm-.95.33V6.27q0-.9-.78-.9t-.78.9v4.42q0,.91.78.91T213.35,10.69Z" fill="#fff"/>
          <path d="M220,12.24h-.88V6H218V5.57a8.78,8.78,0,0,0,1.47-.94H220Z" fill="#fff"/>
          <path d="M227.18,10.36a2.36,2.36,0,0,1-.37,1.46,1.62,1.62,0,0,1-1.36.53q-1.57,0-1.57-1.89h.84a2.17,2.17,0,0,0,.1.77.62.62,0,0,0,.63.38q.78,0,.78-.91V8.48a5.59,5.59,0,0,1-.56.52,1.16,1.16,0,0,1-.7.23q-1.26,0-1.26-1.44V6.85A3.07,3.07,0,0,1,224,5.26a1.54,1.54,0,0,1,1.41-.63,1.6,1.6,0,0,1,1.36.53,2.35,2.35,0,0,1,.37,1.46ZM226.24,8V6.27q0-.9-.78-.9t-.78.9V7.58q0,.9.72.9A1.61,1.61,0,0,0,226.24,8Z" fill="#fff"/>
        </g>
      </g>
    </g>
  </g>
</svg>
